<?xml version="1.0" standalone="no"?>
<!DOCTYPE svg PUBLIC "-//W3C//DTD SVG 20010904//EN"
 "http://www.w3.org/TR/2001/REC-SVG-20010904/DTD/svg10.dtd">
<svg version="1.0" xmlns="http://www.w3.org/2000/svg"
 width="260.000000pt" height="260.000000pt" viewBox="0 0 260.000000 260.000000"
 preserveAspectRatio="xMidYMid meet">

<g transform="translate(0.000000,260.000000) scale(0.100000,-0.100000)"
fill="#000000" stroke="none">
<path d="M2255 2349 c-213 -115 -637 -522 -1142 -1096 -112 -128 -207 -233
-210 -233 -3 0 -78 46 -167 102 -88 56 -221 139 -293 185 -136 85 -169 96
-216 71 -32 -17 -46 -39 -47 -74 0 -37 16 -57 197 -253 133 -144 190 -224 397
-556 76 -121 148 -228 159 -237 35 -28 93 -23 126 9 15 16 67 105 115 198 49
94 101 193 116 220 182 336 258 467 363 625 53 79 236 327 273 370 12 14 84
99 160 190 76 91 153 181 170 200 150 164 174 210 136 256 -38 48 -78 54 -137
23z"/>
</g>
</svg>
