<?xml version="1.0" encoding="UTF-8"?>
<!DOCTYPE svg PUBLIC "-//W3C//DTD SVG 1.1//EN" "http://www.w3.org/Graphics/SVG/1.1/DTD/svg11.dtd">
<!-- Creator: CorelDRAW 2017 -->
<svg xmlns="http://www.w3.org/2000/svg" xml:space="preserve" width="4.76044in" height="4.76041in" version="1.1" style="shape-rendering:geometricPrecision; text-rendering:geometricPrecision; image-rendering:optimizeQuality; fill-rule:evenodd; clip-rule:evenodd"
viewBox="0 0 4760.44 4760.41"
 xmlns:xlink="http://www.w3.org/1999/xlink">
 <defs>
  <style type="text/css">
   <![CDATA[
    .fil1 {fill:none}
    .fil0 {fill:#040402}
   ]]>
  </style>
   <clipPath id="id0">
    <path d="M-0 0l4760.44 0 0 4760.41 -4760.44 0 0 -4760.41z"/>
   </clipPath>
 </defs>
 <g id="Layer_x0020_1">
  <metadata id="CorelCorpID_0Corel-Layer"/>
  <g>
  </g>
  <g style="clip-path:url(#id0)">
   <g>
    <g id="_1863563506464">
     <path class="fil0" d="M1744.17 4021.99c94.34,8.69 171.7,-19.66 231.44,-55.19l-29.72 -9.54c-1.33,-0.62 -3.83,-1.77 -5.5,-3.02 -18.16,-161.11 -11.96,-585.33 -10.28,-785.1 1.21,-143.62 -20.55,-184.05 83.37,-186.17 133.87,-2.72 100.4,41.83 103.28,164.56 2.31,98.57 6.61,598.37 -3.69,675.04 -7.09,52.74 -18.11,64.14 -35.82,104.86 38.46,-11.94 130.68,-93.32 227.8,-128.04 -20.24,-87.5 -4.74,-443.28 -4.3,-558.22l0.97 -1109.22c-0.63,-177.82 7.87,-384.24 -3.55,-558.48 -101.31,-23.58 -412.95,-45.17 -530.47,-18.19 -52.76,12.11 -36.21,18.87 -36.79,158.92 -0.7,170.52 -0.38,2223.78 13.26,2307.79zm175.5 -2105.84c-2.16,78.65 -2.15,718.29 9.98,737.26 14.68,25.15 26.56,25.72 62.08,27.37 118.56,5.52 103.34,-20.97 103.49,-152.68l1.14 -638.78c-118.63,23.73 -14.95,15.6 -176.69,26.82z"/>
     <path class="fil0" d="M2364.18 1573.92c-4.4,449.61 14.83,904.56 13.27,1357.54l0.04 785.1c0.01,61.91 -15.58,33.37 -35.54,68.63 103.3,-17.02 167.25,-22.57 280.18,15.87 46.65,15.87 99.35,46.97 145.5,63.37 -39.09,-89.69 -165.24,-95.04 -165.46,-471.98 -0.09,-103.22 6.13,-206.04 5.83,-309.93 -0.37,-134.38 33.96,-148.89 162.06,-148.5 260.76,0.78 224.55,-63.48 221.02,-405.89 -4.2,-406.78 -24.24,-810.6 -31.83,-1220.33 -42.37,16.1 -182.31,167.29 -410.64,236.26 -77.12,23.29 -115.78,15.85 -184.43,29.89zm225.73 205.61c-6.09,255.98 -0.37,533.47 1.24,791.8 0.63,102.59 -16.56,138.66 85.29,138.59 93.67,-0.07 124.78,13.87 124.22,-80.97l-12.96 -947.75c-12.77,4.68 -63.14,49.61 -82.48,61.54 -41.62,25.67 -62.12,31.11 -115.31,36.79z"/>
     <path class="fil0" d="M3299.72 3712.33c6.2,-109.91 80.11,-585.28 71.91,-626.82 -13.67,-69.17 -238.76,-382.43 -294.27,-407.7 -4.55,208.19 9.7,430.5 11.43,635.11 0.93,109.72 -3.17,561.32 15.81,630.27 88.52,38.09 262.45,-71.72 321.79,-117.65 147.81,-114.4 315.31,-347.45 374.92,-519.14 17.97,-51.77 36.3,-135.51 8.54,-189.34 -25.75,-49.93 -264.61,-267.9 -334.19,-343.76 -342,-372.91 -270.31,-959 -150.98,-996.58 100.83,-6.3 98.26,73.27 73.51,147.89 -19.87,59.89 -45.65,119.15 -99.28,142.54 -22.2,128.35 62.33,286.86 126.61,345.59 0.96,-1.57 1.93,-6.05 2.22,-5.07 0.3,1 1.73,-3.96 2.11,-5.19l3.41 -11.14c36.32,-147.94 6.32,-141.59 90.94,-368.81 57.26,-153.76 162.72,-284.43 106.73,-348.07 -50.46,-57.36 -213.51,-157.18 -290,-200.37 -58.54,-33.06 -273.56,-144.77 -335.15,-157.99 4.45,119.25 22.37,241.31 26.47,354.82 4.52,125.09 12.89,247.15 15.76,374.65 2.76,122.51 2.89,250.18 7.11,374.52 4.54,133.7 48.33,123.28 135.59,241.99 76.96,104.68 244.54,337.83 284.2,477.93 57.86,204.39 -65.59,512.76 -175.2,572.34z"/>
     <path class="fil0" d="M1665.04 4009.16c15.52,-131.04 8.85,-313.44 8.98,-451.07l-3.02 -346.11c3.77,-55.93 25.24,-55.53 25.79,-91.99 -77.04,-2.28 -256.06,-22.19 -315.43,-6.39 13.29,39.74 107.66,36.83 83.11,255.71 -0.31,2.8 -2.1,15.45 -2.78,17.86l-6.77 15.96c-0.57,1.22 -1.75,3.55 -2.95,5.09 -209.67,-218.31 -233.78,-741.81 -140.15,-1040.56 24.34,-77.63 84.37,-265.69 154.55,-271.47 13.03,36.18 4.55,154.82 4.61,201.44 0.12,96.19 -10.11,89.11 -37.13,163.71 18.72,-4.93 87.33,-46.06 110.34,-56.14 44.06,-19.3 93.02,-33.48 139.66,-43.05 -11.48,-35.65 -17.54,-24.62 -17.03,-78.7 0.31,-33.76 0.37,-67.31 0.24,-101.09 -0.27,-67.23 -0.62,-134.44 -0.79,-201.68 -0.3,-122.87 3.89,-270.42 -3.9,-390.62 -38.5,-0.2 -236.07,160.57 -260.57,182.07 -72.33,63.49 -146.85,155.13 -197.91,255.56 -112.54,221.33 -149.34,481.29 -140.24,767.2 12.04,378 151.5,722.71 364.67,995.91 42.51,54.48 174.49,205.19 236.72,218.35z"/>
     <path class="fil0" d="M1401.63 3882.78c-10.04,-29.92 -42.15,-76.87 -56.67,-102.46 -130.28,-229.58 -265.49,-531.26 -319.74,-789.2 -81.36,-386.79 -96.94,-754.64 88.71,-1074.81 83.63,-144.22 185.57,-240.19 307.79,-325.98 464.2,-325.88 613.98,-13.84 1031.02,-78.79 143.08,-22.28 273.57,-86.52 387.26,-166.81 8.77,-6.19 14.67,-9.61 25.09,-17.93 19.24,-15.34 9.92,-4.15 23.34,-24.09 -113.28,25.53 -261.15,155.2 -561.39,111.36 -420.46,-61.4 -608.04,-329.02 -1038,21.91 -609.79,497.72 -486.42,1407.91 -156.71,2030.8 45.25,85.51 213.66,382.18 269.3,415.99z"/>
     <path class="fil0" d="M1582.78 4057.36c10.48,31.16 94.7,76.1 134.35,92.18 61.44,24.93 137.95,27.09 205.07,17.57 244.06,-34.62 383.77,-211.16 771.86,-114.33 131.36,32.77 220.15,94.3 350.74,115.18 419.74,67.12 640.89,-289.33 752.37,-635.1 33.98,-105.4 88.2,-274.52 91.98,-380.76l-21.55 34.67c-4.9,12.22 -9.27,26.38 -15.46,41.98 -145.42,366.64 -361.57,878.28 -853.3,778.94 -246.35,-49.76 -448.3,-186.19 -729.85,-78.23 -86.96,33.34 -155.38,93.78 -302.74,136.67 -160.49,46.72 -232.19,29.73 -383.45,-8.77z"/>
     <path class="fil0" d="M2379.02 1245.01c-5,-173.03 74.71,-284.52 153.61,-373.25 92.38,-103.88 476.06,-372.06 317.41,29.72 -66.93,169.51 -226.78,286.88 -366.33,385.52 138.5,-5.58 364.28,-175.78 457.02,-302.24 74.85,-102.05 268.29,-509.05 124.33,-539.55 -123.54,-26.18 -394.56,143.87 -498.6,265.92 -59.94,70.32 -110.11,145.17 -147.48,233.5 -20.38,48.17 -94.7,253.09 -39.98,300.38z"/>
     <path class="fil0" d="M3855.28 2995.18c-79.69,-110.77 -87.83,-102.34 -157.87,-241.63 -162.67,-323.46 -63.28,-694.5 149.66,-963.51 32.25,-40.74 102.2,-93.58 6.96,-180.12 -92.86,-84.39 -229.12,-147.94 -359.61,-201.57 -95.76,-39.35 -349.11,-117.74 -451.23,-119.09 32.11,21.07 315.41,101.7 509.94,225.05 65.26,41.39 170.76,113.49 183.91,185.99 10.74,59.26 -66.05,156.92 -115.07,260.52 -140.56,297.09 -154.7,570.22 48.75,847.7 23.35,31.84 146.89,176.12 184.56,186.67z"/>
    </g>
   </g>
  </g>
  <polygon class="fil1" points="-0,0 4760.44,0 4760.44,4760.41 -0,4760.41 "/>
 </g>
</svg>
